HIERARCHY
ROOT Hips
{
	OFFSET 4.076200 -17.275196 43.303001
	CHANNELS 6 Xposition Yposition Zposition Zrotation Xrotation Yrotation
	JOINT Chest
	{
		OFFSET -0.689800 0.941999 5.341000
		CHANNELS 6 Xposition Yposition Zposition Zrotation Xrotation Yrotation
		JOINT Chest2
		{
			OFFSET 0.000000 0.000000 4.278900
			CHANNELS 6 Xposition Yposition Zposition Zrotation Xrotation Yrotation
			JOINT Neck
			{
				OFFSET 0.000000 0.000000 9.970299
				CHANNELS 6 Xposition Yposition Zposition Zrotation Xrotation Yrotation
				JOINT Head
				{
					OFFSET 0.000000 0.000002 2.173901
					CHANNELS 6 Xposition Yposition Zposition Zrotation Xrotation Yrotation
					End Site
					{
						OFFSET 0.000000 0.000000 6.488197
					}
				}
			}
			JOINT LeftCollar
			{
				OFFSET 2.472300 -0.285801 5.433899
				CHANNELS 6 Xposition Yposition Zposition Zrotation Xrotation Yrotation
				JOINT LeftShoulder
				{
					OFFSET 5.327700 0.000000 0.000000
					CHANNELS 6 Xposition Yposition Zposition Zrotation Xrotation Yrotation
					JOINT LeftElbow
					{
						OFFSET 0.000000 0.000000 -10.713001
						CHANNELS 6 Xposition Yposition Zposition Zrotation Xrotation Yrotation
						JOINT LeftWrist
						{
							OFFSET 0.000000 -0.000002 -13.396900
							CHANNELS 6 Xposition Yposition Zposition Zrotation Xrotation Yrotation
							End Site
							{
								OFFSET 0.000000 0.000000 -2.173901
							}
						}
					}
				}
			}
			JOINT RightCollar
			{
				OFFSET -2.589400 -1.358400 6.105000
				CHANNELS 6 Xposition Yposition Zposition Zrotation Xrotation Yrotation
				JOINT RightShoulder
				{
					OFFSET -4.580200 0.000000 0.000000
					CHANNELS 6 Xposition Yposition Zposition Zrotation Xrotation Yrotation
					JOINT RightElbow
					{
						OFFSET 0.000000 0.000000 -10.761101
						CHANNELS 6 Xposition Yposition Zposition Zrotation Xrotation Yrotation
						JOINT RightWrist
						{
							OFFSET 0.000000 -0.000002 -13.028500
							CHANNELS 6 Xposition Yposition Zposition Zrotation Xrotation Yrotation
							End Site
							{
								OFFSET 0.000000 0.000000 -2.173901
							}
						}
					}
				}
			}
		}
	}
	JOINT LeftHip
	{
		OFFSET 2.532500 0.486900 -2.489700
		CHANNELS 6 Xposition Yposition Zposition Zrotation Xrotation Yrotation
		JOINT LeftKnee
		{
			OFFSET 0.000000 -0.000002 -18.199398
			CHANNELS 6 Xposition Yposition Zposition Zrotation Xrotation Yrotation
			JOINT LeftAnkle
			{
				OFFSET 0.000000 -0.000002 -16.083900
				CHANNELS 6 Xposition Yposition Zposition Zrotation Xrotation Yrotation
				End Site
				{
					OFFSET 0.000000 -8.641399 0.000000
				}
			}
		}
	}
	JOINT RightHip
	{
		OFFSET -2.112700 -0.049900 -2.711102
		CHANNELS 6 Xposition Yposition Zposition Zrotation Xrotation Yrotation
		JOINT RightKnee
		{
			OFFSET 0.000000 -0.000002 -19.127298
			CHANNELS 6 Xposition Yposition Zposition Zrotation Xrotation Yrotation
			JOINT RightAnkle
			{
				OFFSET 0.000000 -0.000002 -14.874901
				CHANNELS 6 Xposition Yposition Zposition Zrotation Xrotation Yrotation
				End Site
				{
					OFFSET 0.000000 -8.198299 0.000000
				}
			}
		}
	}
}
MOTION
Frames: 7
Frame Time: 0.041667
51.316200 -29.345997 35.976501 -364.766225 10.619855 -17.918253 -0.689797 0.942000 5.341002 7.975169 -2.871621 -2.680092 -0.000006 0.000003 4.278900 -8.316484 0.613518 -0.679073 -0.000002 0.000000 9.970307 -40.708470 -2.905386 31.041161 -0.000002 -0.000004 2.173890 -3.012106 0.111811 -6.698664 2.472299 -0.285803 5.433897 -9.826019 2.768412 -4.969529 5.327709 -0.000003 -0.000007 -366.216438 10.809772 -408.030911 -0.000004 0.000001 -10.713007 36.521766 -28.135841 89.678663 -0.000002 0.000001 -13.396901 15.805862 6.044072 -42.574297 -2.589398 -1.358403 6.105003 32.199899 19.848248 13.918268 -4.580201 0.000004 0.000009 68.997253 -38.887726 46.009841 0.000003 -0.000003 -10.761094 -28.284380 -50.553669 -46.211998 -0.000003 0.000003 -13.028503 94.172347 183.108807 43.748700 2.532499 0.486897 -2.489693 43.095966 -38.331237 39.541485 -0.000004 0.000003 -18.199400 -106.447399 49.279555 87.095704 0.000003 0.000001 -16.083906 43.341420 7.683392 9.614741 -2.112700 -0.049899 -2.711097 -125.816142 -35.483099 -74.552997 -0.000001 -0.000004 -19.127289 199.586706 156.160254 -137.876753 -0.000002 0.000000 -14.874901 18.503911 73.257699 51.767479
51.223701 -29.306194 35.882103 -364.417257 10.590943 -17.983261 -0.689792 0.942003 5.341002 7.648384 -2.910624 -2.739015 0.000001 0.000003 4.278903 -8.302255 0.666239 -0.672511 0.000002 0.000001 9.970306 -40.616041 -2.823798 31.536339 -0.000000 0.000004 2.173894 -2.949547 0.105271 -6.650075 2.472302 -0.285806 5.433902 -9.645130 2.583206 -5.194412 5.327703 -0.000002 -0.000002 -366.207013 10.677914 -408.159264 0.000003 -0.000004 -10.713006 37.034064 -28.160540 90.563357 0.000003 -0.000000 -13.396904 15.559830 6.166806 -42.238528 -2.589395 -1.358402 6.105009 32.086473 19.628849 14.032906 -4.580196 -0.000003 -0.000005 69.164217 -38.686431 45.629786 0.000001 0.000001 -10.761106 -27.945166 -49.810439 -45.849875 -0.000000 -0.000002 -13.028498 95.620866 181.893661 43.076640 2.532506 0.486900 -2.489694 43.198426 -38.598140 39.714470 0.000006 -0.000003 -18.199394 -107.001061 48.985762 87.658211 -0.000003 -0.000004 -16.083900 43.488754 7.715186 9.508854 -2.112691 -0.049896 -2.711098 -125.927023 -35.016843 -74.803248 0.000004 -0.000004 -19.127300 200.675684 154.837520 -136.967259 -0.000003 0.000003 -14.874897 17.766842 71.644866 51.195270
51.118397 -29.274097 35.783905 -364.148011 10.523083 -18.211135 -0.689796 0.942002 5.340999 7.392559 -2.906569 -2.636824 -0.000004 -0.000001 4.278904 -8.345310 0.710335 -0.668746 0.000000 -0.000003 9.970301 -40.407553 -2.710333 32.105967 -0.000002 -0.000002 2.173887 -2.928858 0.128804 -6.642990 2.472304 -0.285802 5.433901 -9.337272 2.304127 -5.312294 5.327711 -0.000001 0.000005 -366.286161 10.696642 -408.414877 0.000007 0.000004 -10.712997 37.524779 -28.394770 91.498758 0.000006 0.000005 -13.396896 15.711511 6.197380 -42.157417 -2.589400 -1.358401 6.105004 32.044567 19.482496 14.327550 -4.580197 0.000003 0.000007 69.192180 -38.670451 45.184317 0.000004 0.000007 -10.761099 -27.567241 -49.263866 -45.398799 0.000001 -0.000004 -13.028501 97.142085 180.577265 42.613728 2.532506 0.486897 -2.489705 43.962318 -38.521905 40.235784 0.000004 -0.000005 -18.199402 -108.003725 48.746599 88.337405 0.000005 0.000007 -16.083900 43.528188 7.823312 9.197353 -2.112698 -0.049900 -2.711102 -125.738633 -35.253922 -74.909369 -0.000007 -0.000001 -19.127302 204.578536 149.725711 -136.352282 -0.000002 -0.000001 -14.874896 14.270640 68.137270 49.526740
50.993198 -29.242496 35.728100 -363.902889 10.339897 -18.652716 -0.689806 0.941996 5.340997 7.130431 -2.697958 -2.304140 -0.000004 -0.000003 4.278903 -8.386309 0.737607 -0.663474 -0.000002 0.000003 9.970291 -40.133638 -2.607947 32.612504 0.000000 0.000001 2.173889 -2.897162 0.149757 -6.529181 2.472297 -0.285801 5.433888 -8.901900 1.949790 -5.546719 5.327700 0.000000 -0.000001 -366.436835 10.572995 -408.579075 -0.000003 -0.000004 -10.713006 37.764232 -28.407546 92.477906 0.000006 -0.000003 -13.396903 15.748314 5.865672 -42.038588 -2.589399 -1.358399 6.104990 31.947069 19.123625 14.374526 -4.580199 0.000000 0.000001 69.309283 -38.349484 44.807270 -0.000002 -0.000002 -10.761100 -27.889201 -48.266918 -45.517026 -0.000001 -0.000004 -13.028502 99.530029 179.372843 41.640166 2.532491 0.486891 -2.489702 45.044100 -38.030278 40.926705 0.000005 -0.000002 -18.199396 -109.260760 48.250666 88.981061 0.000004 -0.000003 -16.083904 43.641620 7.862917 9.070247 -2.112712 -0.049906 -2.711102 -125.116102 -36.370850 -74.562723 0.000000 0.000001 -19.127302 209.606484 143.232400 -136.582979 -0.000000 -0.000004 -14.874900 9.578568 64.061895 47.084056
50.840401 -29.223793 35.682701 -363.873711 10.275782 -18.738269 -0.689799 0.942002 5.340995 7.085476 -2.680366 -2.227583 0.000001 0.000001 4.278901 -8.436061 0.799716 -0.657135 -0.000000 -0.000000 9.970299 -39.753504 -2.368572 33.103734 -0.000004 0.000001 2.173905 -2.886354 0.067398 -6.443653 2.472306 -0.285799 5.433898 -8.545062 1.658164 -5.849245 5.327701 0.000002 -0.000003 -366.390116 10.314550 -408.642131 -0.000006 -0.000003 -10.712996 37.850798 -28.739250 93.178752 0.000006 -0.000004 -13.396901 16.113688 5.423053 -41.381773 -2.589397 -1.358398 6.105006 31.838975 18.848371 14.564518 -4.580197 -0.000002 -0.000002 69.607715 -38.109928 44.606873 -0.000002 0.000002 -10.761100 -28.337866 -47.225099 -45.559073 -0.000001 0.000000 -13.028496 101.996000 178.346539 40.445129 2.532502 0.486898 -2.489704 45.595310 -37.968311 40.995752 0.000004 -0.000004 -18.199400 -109.849803 47.950127 89.281070 0.000005 -0.000004 -16.083895 43.652094 7.969212 8.921079 -2.112696 -0.049902 -2.711101 -124.506726 -36.671412 -74.173676 0.000004 -0.000000 -19.127296 216.626990 135.785431 -138.264339 0.000000 -0.000004 -14.874901 4.137166 59.773171 44.178849
50.668201 -29.221695 35.667500 -363.755357 10.215937 -18.902175 -0.689796 0.942000 5.340996 6.964034 -2.714977 -2.108981 0.000006 -0.000003 4.278902 -8.484716 0.874753 -0.645331 -0.000002 0.000002 9.970296 -39.391053 -2.236133 33.763387 -0.000000 0.000005 2.173890 -2.758591 0.056407 -6.354322 2.472302 -0.285803 5.433898 -8.253959 1.374443 -6.022982 5.327708 0.000000 -0.000004 -366.252611 10.046474 -408.838485 0.000007 0.000000 -10.713007 37.895389 -29.191388 93.922136 0.000002 -0.000003 -13.396896 16.386443 4.919310 -40.761678 -2.589391 -1.358398 6.105003 31.724511 18.617528 14.967496 -4.580194 0.000006 0.000003 69.439494 -38.278258 44.126423 0.000005 0.000002 -10.761097 -29.398756 -45.900094 -46.215372 0.000005 -0.000002 -13.028491 105.061280 177.415093 38.389778 2.532501 0.486898 -2.489705 44.856728 -38.258509 40.423990 0.000000 0.000004 -18.199394 -109.004806 48.004540 88.955298 -0.000005 -0.000003 -16.083899 43.542763 8.198379 8.639406 -2.112702 -0.049901 -2.711106 -124.329223 -36.579864 -73.941142 0.000005 0.000002 -19.127298 218.413604 133.782806 -138.499311 -0.000000 -0.000009 -14.874896 2.710986 57.612967 43.444477
50.459595 -29.237095 35.654102 -363.835735 10.073884 -19.116776 -0.689796 0.942000 5.340994 6.999053 -2.580300 -1.872921 -0.000002 -0.000000 4.278898 -8.555988 0.937932 -0.637378 0.000002 0.000002 9.970299 -38.931733 -2.004637 34.326499 -0.000003 -0.000007 2.173894 -2.672529 0.064037 -6.257399 2.472297 -0.285806 5.433907 -7.850522 0.984495 -6.268406 5.327698 -0.000000 0.000001 -366.248622 9.797596 -408.959871 0.000003 -0.000001 -10.712996 37.808440 -29.623541 94.555930 0.000007 -0.000003 -13.396897 16.325593 4.602479 -40.293325 -2.589402 -1.358402 6.105009 31.603541 18.273681 15.306466 -4.580199 0.000004 0.000005 69.418423 -38.255336 43.758457 0.000000 -0.000005 -10.761104 -30.085300 -44.593062 -46.808219 0.000002 -0.000002 -13.028506 107.302955 177.629752 36.587179 2.532505 0.486894 -2.489701 45.502707 -37.904961 40.253204 0.000006 0.000003 -18.199398 -109.332156 47.680598 88.853063 0.000002 0.000003 -16.083897 43.420110 8.407059 8.334371 -2.112698 -0.049905 -2.711107 -123.548464 -37.235541 -73.319731 0.000001 0.000001 -19.127295 224.226013 128.478017 -141.054608 -0.000002 -0.000005 -14.874902 -1.357019 54.187333 40.983597
